{"title":"MIB³.Homens.de.Preto.3.R5.XviD.Dublado-SceneLovers","uid":7599536,"size":730832896,"categoryP":"video","categoryS":"movies","magnet":"?xt=urn:btih:7ab09350a702640f750e445a9a77773e634191a7&amp;dn=MIB%26sup3%3B.Homens.de.Preto.3.R5.XviD.Dublado-SceneLovers&amp;tr=udp%3A%2F%2Ftracker.openbittorrent.com%3A80&amp;tr=udp%3A%2F%2Fopen.demonii.com%3A1337&amp;tr=udp%3A%2F%2Ftracker.coppersurfer.tk%3A6969&amp;tr=udp%3A%2F%2Fexodus.desync.com%3A6969","seeders":0,"leechers":0,"uploader":"marcusfilipp","files":2,"time":1346776960,"description":"\n\nMIBÂ³.Homens.de.Preto.3.R5.XviD.Dublado-SceneLovers.avi\n\n\nFormat                                   : AVI\nFormat/Info                              : Audio Video Interleave\nFile size                                : 693 MiB\nDuration                                 : 1h 45mn\nOverall bit rate                         : 915 Kbps\nWriting application                      : VirtualDubMod 1.5.10.2 (build 2540/release)\nWriting library                          : VirtualDubMod build 2540/release\n\nVideo\nID                                       : 0\nFormat                                   : MPEG-4 Visual\nFormat profile                           : Advanced Simple@L5\nFormat settings, BVOP                    : 1\nFormat settings, QPel                    : No\nFormat settings, GMC                     : No warppoints\nFormat settings, Matrix                  : Default (H.263)\nMuxing mode                              : Packed bitstream\nCodec ID                                 : XVID\nCodec ID/Hint                            : XviD\nDuration                                 : 1h 45mn\nBit rate                                 : 787 Kbps\nWidth                                    : 624 pixels\nHeight                                   : 336 pixels\nDisplay aspect ratio                     : 1.85:1\nFrame rate                               : 23.976 fps\nColor space                              : YUV\nChroma subsampling                       : 4:2:0\nBit depth                                : 8 bits\nScan type                                : Progressive\nCompression mode                         : Lossy\nBits/(Pixel*Frame)                       : 0.157\nStream size                              : 596 MiB (86%)\nWriting library                          : XviD 1.3.0.dev55\n\nAudio\nID                                       : 1\nFormat                                   : MPEG Audio\nFormat version                           : Version 1\nFormat profile                           : Layer 3\nCodec ID                                 : 55\nCodec ID/Hint                            : MP3\nDuration                                 : 1h 38mn\nBit rate mode                            : Constant\nBit rate                                 : 128 Kbps\nChannel(s)                               : 2 channels\nSampling rate                            : 44.1 KHz\nCompression mode                         : Lossy\nStream size                              : 89.8 MiB (13%)\nAlignment                                : Split accross interleaves\nInterleave, duration                     : 45 ms (1.08 video frame)\nInterleave, preload duration             : 500 ms","torrent":{"xt":"urn:btih:7ab09350a702640f750e445a9a77773e634191a7","amp;dn":"MIB%26sup3%3B.Homens.de.Preto.3.R5.XviD.Dublado-SceneLovers","amp;tr":["udp%3A%2F%2Ftracker.openbittorrent.com%3A80","udp%3A%2F%2Fopen.demonii.com%3A1337","udp%3A%2F%2Ftracker.coppersurfer.tk%3A6969","udp%3A%2F%2Fexodus.desync.com%3A6969"],"infoHash":"7ab09350a702640f750e445a9a77773e634191a7","infoHashBuffer":{"type":"Buffer","data":[122,176,147,80,167,2,100,15,117,14,68,90,154,119,119,62,99,65,145,167]},"announce":[],"urlList":[]}}